<svg version="1.0" xmlns="http://www.w3.org/2000/svg"
 width="291.000000pt" height="401.000000pt" viewBox="0 0 291.000000 401.000000"
 preserveAspectRatio="xMidYMid meet">

<g transform="translate(0.000000,401.000000) scale(0.100000,-0.100000)" fill="orange"
stroke="none">
<path d="M1505 3962 c-109 -60 -175 -110 -281 -216 -119 -119 -172 -190 -234
-315 -92 -184 -125 -337 -124 -576 1 -213 23 -347 102 -600 24 -76 22 -311 -2
-390 -33 -106 -129 -296 -143 -282 -2 3 1 26 7 52 22 96 30 245 19 340 -22
202 -90 354 -218 488 -63 67 -197 162 -206 147 -3 -5 1 -56 10 -114 17 -118
20 -340 5 -436 -22 -140 -53 -207 -172 -371 -226 -315 -299 -705 -184 -989 83
-203 264 -379 523 -509 128 -64 216 -96 372 -135 214 -54 258 -47 129 21 -106
55 -190 139 -235 232 -35 73 -37 79 -36 181 1 113 -5 90 106 390 52 143 70
234 65 342 -3 51 -8 102 -13 112 -13 30 74 -34 124 -90 54 -62 81 -136 81
-224 0 -49 4 -70 12 -70 20 0 143 134 192 209 88 134 130 237 146 364 11 89 0
195 -30 282 -10 30 -16 55 -12 55 21 0 126 -98 166 -153 74 -103 98 -180 104
-323 4 -110 2 -130 -28 -250 -41 -166 -39 -238 13 -346 34 -69 80 -128 92
-116 4 3 -1 43 -11 88 -31 155 0 281 92 378 l55 57 -6 -80 c-7 -89 7 -201 32
-249 8 -17 39 -67 69 -111 153 -232 136 -471 -43 -609 -48 -37 -67 -66 -44
-66 22 0 163 56 255 101 320 158 521 373 602 644 20 70 27 119 31 220 8 211
-29 378 -148 657 -223 526 -275 911 -155 1153 19 38 31 73 27 78 -4 4 -34 -7
-67 -24 -159 -85 -301 -209 -385 -337 -80 -122 -111 -225 -112 -369 0 -51 -4
-93 -8 -93 -10 0 -148 148 -219 235 -197 241 -340 536 -385 792 -18 103 -21
310 -5 408 17 111 47 212 97 323 27 60 42 107 37 112 -5 5 -30 -2 -59 -18z"/>
</g>
</svg>
